<?xml version="1.0" encoding="UTF-8" standalone="no"?>
<!-- Created with Inkscape (http://www.inkscape.org/) -->
<svg
   width="200mm"
   height="200mm"
   viewBox="0 0 200 200"
   version="1.1"
   id="svg5"
   xml:space="preserve"
   inkscape:version="1.2.1 (9c6d41e410, 2022-07-14)"
   sodipodi:docname="piron.svg"
   xmlns:inkscape="http://www.inkscape.org/namespaces/inkscape"
   xmlns:sodipodi="http://sodipodi.sourceforge.net/DTD/sodipodi-0.dtd"
   xmlns="http://www.w3.org/2000/svg"
   xmlns:svg="http://www.w3.org/2000/svg"><sodipodi:namedview
     id="namedview7"
     pagecolor="#ffffff"
     bordercolor="#000000"
     borderopacity="0.25"
     inkscape:showpageshadow="2"
     inkscape:pageopacity="0.0"
     inkscape:pagecheckerboard="0"
     inkscape:deskcolor="#d1d1d1"
     inkscape:document-units="mm"
     showgrid="false"
     inkscape:zoom="1.493432"
     inkscape:cx="173.09125"
     inkscape:cy="368.61405"
     inkscape:window-width="1920"
     inkscape:window-height="991"
     inkscape:window-x="-9"
     inkscape:window-y="-9"
     inkscape:window-maximized="1"
     inkscape:current-layer="layer1" /><defs
     id="defs2" /><g
     inkscape:label="Katman 1"
     inkscape:groupmode="layer"
     id="layer1"><path
       style="fill:#cf5b65;stroke-width:0.249081"
       d="m 82.564349,152.92966 c 0,-6.68367 -0.01208,-6.84972 -0.498161,-6.84972 -0.273989,0 -0.498162,-0.11209 -0.498162,-0.24908 0,-0.13838 0.664216,-0.24908 1.494485,-0.24908 0.883733,0 1.494484,0.10756 1.494484,0.2632 0,0.14753 0.243295,0.0928 0.553585,-0.12454 1.174151,-0.82241 2.505924,-0.17825 3.495457,1.69072 0.459095,0.8671 0.548015,1.4392 0.548015,3.52585 0,2.08665 -0.08892,2.65875 -0.548015,3.52586 -0.989533,1.86896 -2.321306,2.51312 -3.495457,1.69071 l -0.553585,-0.38774 v 2.00677 2.00677 h -0.996323 -0.996323 z m 3.885734,2.92288 c 0.684624,-0.45713 0.8468,-1.39854 0.8468,-4.91553 0,-3.51699 -0.162176,-4.45839 -0.8468,-4.91553 -0.458502,-0.30615 -0.872517,-0.21487 -1.394926,0.30754 -0.457905,0.4579 -0.498162,0.83027 -0.498162,4.60799 0,3.77773 0.04026,4.15009 0.498162,4.608 0.522409,0.52241 0.936424,0.61368 1.394926,0.30753 z m 17.626137,0.21078 c -1.19693,-0.72985 -1.71042,-2.34611 -1.70778,-5.37539 0.002,-2.10273 0.0895,-2.65494 0.56288,-3.54427 0.59706,-1.12178 1.61431,-1.81096 2.673,-1.81096 1.05992,0 2.07655,0.68984 2.66883,1.81096 0.47212,0.89369 0.55749,1.45014 0.56287,3.66881 0.005,2.16434 -0.0865,2.81633 -0.53225,3.7808 -0.8542,1.84834 -2.60739,2.45798 -4.22755,1.47005 z m 2.25717,-0.41119 c 0.60955,-0.60955 0.68356,-1.26591 0.59707,-5.29563 -0.0666,-3.10494 -0.15319,-3.83434 -0.49555,-4.17612 -0.5605,-0.55956 -1.5362,-0.28966 -1.90875,0.52801 -0.3898,0.85552 -0.39419,7.67849 -0.005,8.4171 0.51778,0.9837 1.16698,1.17231 1.81265,0.52664 z m -15.798457,0.39104 c 0,-0.137 0.224173,-0.24908 0.498161,-0.24908 0.48113,0 0.498162,-0.16606 0.498162,-4.85708 0,-4.69102 -0.01704,-4.85707 -0.498162,-4.85707 -0.273988,0 -0.498161,-0.11209 -0.498161,-0.24908 0,-0.13838 0.664216,-0.24908 1.494484,-0.24908 h 1.494485 v 5.10615 c 0,4.9401 0.01619,5.10616 0.498161,5.10616 0.273989,0 0.498162,0.11208 0.498162,0.24908 0,0.14529 -0.830269,0.24908 -1.992646,0.24908 -1.162378,0 -1.992646,-0.10379 -1.992646,-0.24908 z m 4.732534,0 c 0,-0.137 0.224173,-0.24908 0.498161,-0.24908 0.48113,0 0.498162,-0.16606 0.498162,-4.85708 0,-4.69102 -0.01704,-4.85707 -0.498162,-4.85707 -0.273988,0 -0.498161,-0.11209 -0.498161,-0.24908 0,-0.13838 0.664216,-0.24908 1.494484,-0.24908 1.162378,0 1.494485,0.083 1.494485,0.37362 0,0.29059 0.110701,0.26292 0.498161,-0.12454 0.621659,-0.62166 1.537583,-0.64046 2.078583,-0.0427 0.73937,0.817 0.37817,2.0353 -0.60342,2.0353 -0.716144,0 -1.091484,-0.67148 -0.769881,-1.37732 0.2811,-0.61694 0.155417,-0.76661 -0.356643,-0.4247 -0.704737,0.47057 -0.8468,1.39694 -0.8468,5.52186 0,4.08469 0.01945,4.25075 0.498161,4.25075 0.273989,0 0.498162,0.11208 0.498162,0.24908 0,0.14529 -0.830269,0.24908 -1.992646,0.24908 -1.162378,0 -1.992646,-0.10379 -1.992646,-0.24908 z m 14.944843,0 c 0,-0.137 0.22417,-0.24908 0.49816,-0.24908 0.48113,0 0.49816,-0.16606 0.49816,-4.85708 0,-4.69102 -0.017,-4.85707 -0.49816,-4.85707 -0.27399,0 -0.49816,-0.11209 -0.49816,-0.24908 0,-0.13838 0.66422,-0.24908 1.49449,-0.24908 1.41541,0 1.49448,0.0319 1.49448,0.60354 v 0.60354 l 0.72808,-0.72808 c 0.84527,-0.84527 1.70618,-0.93067 2.54465,-0.25242 0.57538,0.46544 0.58969,0.57787 0.66539,5.2307 0.0734,4.51284 0.10197,4.75503 0.56043,4.75503 0.26568,0 0.48307,0.11208 0.48307,0.24908 0,0.14391 -0.78876,0.24908 -1.86811,0.24908 -1.07935,0 -1.86811,-0.10517 -1.86811,-0.24908 0,-0.137 0.16813,-0.24908 0.37363,-0.24908 0.3182,0 0.37362,-0.66196 0.37362,-4.46308 0,-2.4547 -0.068,-4.64038 -0.15119,-4.85708 -0.24292,-0.63302 -0.81425,-0.45665 -1.34603,0.41552 -0.43846,0.71912 -0.49367,1.26146 -0.4945,4.85707 -7.5e-4,3.4322 0.0559,4.04757 0.37269,4.04757 0.20549,0 0.37362,0.11208 0.37362,0.24908 0,0.14391 -0.78875,0.24908 -1.8681,0.24908 -1.07935,0 -1.86811,-0.10517 -1.86811,-0.24908 z M 62.63789,141.3474 V 140.102 H 100 137.36211 v 1.2454 1.24541 h -22.09346 c -17.183803,0 -22.027039,-0.0664 -21.794564,-0.2989 0.698671,-0.69867 0.172296,-1.94283 -0.821967,-1.94283 -0.994263,0 -1.520638,1.24416 -0.821966,1.94283 0.232474,0.23248 -2.9779,0.2989 -14.446683,0.2989 H 62.63789 Z m 33.874981,-3.63829 c -7.147656,-1.29237 -12.853329,-4.67293 -16.757059,-9.92841 -7.680746,-10.34036 -6.639031,-24.52644 2.445915,-33.308511 1.819879,-1.759207 2.85343,-3.564883 2.85343,-4.985121 0,-0.522529 -0.234854,-1.985667 -0.521894,-3.251416 -1.216655,-5.364992 0.154714,-10.861985 3.635403,-14.572155 l 1.245404,-1.32751 1.44736,1.630348 1.447361,1.630348 -0.984526,1.183514 c -2.632482,3.164536 -3.338173,6.664569 -2.256044,11.189345 1.111052,4.645704 0.251893,7.474524 -3.450503,11.360944 -3.674813,3.857464 -5.540587,7.472444 -6.300744,12.207814 -0.60095,3.74359 0.186307,8.7749 1.91025,12.20831 1.427327,2.84266 4.366577,6.25554 6.861828,7.96752 1.532741,1.05161 4.785641,2.54926 6.680253,3.07563 1.218638,0.33857 2.512196,0.44981 5.230695,0.44981 4.31498,0 5.6938,-0.31357 9.40706,-2.13936 1.98895,-0.97795 3.00325,-1.6769 4.56361,-3.14478 3.22788,-3.03655 4.90141,-5.68918 6.11715,-9.69595 0.58101,-1.91485 0.66725,-2.63714 0.67837,-5.6809 0.01,-2.62672 -0.0981,-3.88646 -0.4363,-5.10557 -1.13298,-4.08356 -2.95377,-7.12666 -6.11953,-10.227628 -2.73652,-2.680512 -3.72051,-4.50177 -3.90888,-7.234916 -0.1044,-1.514785 -0.013,-2.21445 0.51465,-3.940612 1.4182,-4.639323 0.36373,-8.865927 -3.02103,-12.109092 -2.04565,-1.960076 -3.80016,-2.637282 -8.590352,-3.315698 -4.329802,-0.613212 -7.674349,-3.690094 -8.672495,-7.978433 -0.979234,-4.207096 1.315858,-8.915992 5.40753,-11.094759 1.397931,-0.744381 1.448193,-0.807447 1.837372,-2.305388 0.486292,-1.871732 1.023707,-2.735313 2.040287,-3.278582 0.424068,-0.226624 1.015758,-0.664237 1.314868,-0.972474 0.29911,-0.308238 0.69912,-0.562472 0.8889,-0.564965 0.18978,-0.0025 0.84945,-0.347622 1.46592,-0.766954 0.92575,-0.629701 1.2826,-0.736936 2.04996,-0.616018 0.86907,0.136944 0.97109,0.08295 1.57903,-0.835708 0.39342,-0.594508 0.7846,-0.930432 0.99116,-0.851167 0.2449,0.09398 0.0956,0.383887 -0.52903,1.027015 -0.5956,0.613269 -0.81187,1.018791 -0.68527,1.284908 0.32339,0.679786 0.0744,4.393964 -0.37672,5.619531 -0.15128,0.410984 -0.33714,1.058306 -0.41301,1.438494 -0.35044,1.755952 -3.45773,3.897087 -6.169811,4.251415 -2.852096,0.372622 -4.758777,2.289443 -5.07289,5.099869 -0.2427,2.171482 1.077301,4.583471 3.024159,5.525927 0.638013,0.308858 1.968746,0.615564 3.239762,0.746697 7.50449,0.774263 13.36367,6.057851 14.60173,13.16728 0.37516,2.154347 0.13075,5.757671 -0.51601,7.607314 -1.00447,2.872688 -0.53329,4.247818 2.48032,7.238718 3.54297,3.516262 5.70627,7.229106 6.88091,11.809626 2.99352,11.67318 -2.61179,23.74903 -13.48733,29.0565 -3.87894,1.893 -5.91325,2.3819 -10.33685,2.48423 -1.986416,0.046 -3.891883,0.0329 -4.234369,-0.029 z"
       id="path205" /></g></svg>
