<?xml version="1.0" encoding="UTF-8" standalone="no"?>
<!-- Created with Inkscape (http://www.inkscape.org/) -->

<svg
   width="900mm"
   height="300mm"
   viewBox="0 0 900 300"
   version="1.1"
   id="svg243"
   inkscape:version="1.2.1 (9c6d41e410, 2022-07-14)"
   sodipodi:docname="irony.svg"
   xmlns:inkscape="http://www.inkscape.org/namespaces/inkscape"
   xmlns:sodipodi="http://sodipodi.sourceforge.net/DTD/sodipodi-0.dtd"
   xmlns="http://www.w3.org/2000/svg"
   xmlns:svg="http://www.w3.org/2000/svg"
   xmlns:rdf="http://www.w3.org/1999/02/22-rdf-syntax-ns#"
   xmlns:cc="http://creativecommons.org/ns#"
   xmlns:dc="http://purl.org/dc/elements/1.1/">
  <title
     id="title692"> IRaf pythON photometrY </title>
  <sodipodi:namedview
     id="namedview245"
     pagecolor="#ffffff"
     bordercolor="#000000"
     borderopacity="0.25"
     inkscape:showpageshadow="2"
     inkscape:pageopacity="0.0"
     inkscape:pagecheckerboard="0"
     inkscape:deskcolor="#d1d1d1"
     inkscape:document-units="mm"
     showgrid="false"
     showguides="true"
     inkscape:zoom="0.90509668"
     inkscape:cx="640.26309"
     inkscape:cy="520.3864"
     inkscape:window-width="2304"
     inkscape:window-height="1190"
     inkscape:window-x="-11"
     inkscape:window-y="-11"
     inkscape:window-maximized="1"
     inkscape:current-layer="layer1" />
  <defs
     id="defs240">
    <rect
       x="1195.7"
       y="493.54425"
       width="3195.3174"
       height="564.77747"
       id="rect617" />
    <rect
       x="1139.7311"
       y="10.17617"
       width="2635.6282"
       height="478.28"
       id="rect457" />
    <rect
       x="1144.8192"
       y="20.352341"
       width="3398.8408"
       height="503.72043"
       id="rect451" />
    <rect
       x="1149.9072"
       y="122.11404"
       width="3261.4626"
       height="503.72043"
       id="rect381" />
  </defs>
  <g
     inkscape:label="Katman 1"
     inkscape:groupmode="layer"
     id="layer1">
    <path
       style="fill:#cf5b65;fill-opacity:1;stroke-width:0.609508"
       d="m 220.11063,32.467379 c 1.26127,0.992185 1.70665,2.118109 2.30509,5.827821 l 0.74178,4.598049 4.05959,2.044372 c 4.87329,2.454184 5.75693,3.415326 5.75693,6.261986 0,1.761211 -0.44234,2.554734 -2.33713,4.192665 l -2.33713,2.020302 13.85884,30.03518 c 7.62231,16.519316 13.95842,30.140216 14.08008,30.268646 0.12176,0.12842 1.20013,-0.62585 2.39639,-1.67615 2.41942,-2.12426 3.79618,-2.3414 6.37861,-1.00597 1.90998,0.98767 2.7887,3.04527 3.41708,8.00133 l 0.39491,3.11468 4.25967,2.06071 c 4.71688,2.28188 6.30827,4.31327 5.66679,7.23367 -0.46799,2.13101 -1.52667,3.08168 -5.79441,5.20336 -1.8437,0.91663 -3.41477,1.71897 -3.4912,1.78303 -0.0764,0.0641 -0.45333,2.22948 -0.83736,4.81206 -0.59698,4.01354 -0.95986,4.91561 -2.49826,6.21007 -2.7042,2.27548 -4.2334,1.94193 -8.78014,-1.91518 l -4.04285,-3.42959 -4.15874,0.68682 c -5.3997,0.89173 -5.06112,0.93347 -7.22958,-0.89113 -1.50544,-1.26675 -1.87523,-2.04814 -1.87523,-3.96181 0,-2.06539 -0.18311,-2.38385 -1.37057,-2.38385 -2.60369,0 -89.71514,4.94195 -89.87166,5.09853 -0.0869,0.0864 -0.46788,2.24673 -0.84773,4.80077 -0.53017,3.56462 -1.03293,4.96519 -2.16333,6.0272 -1.81093,1.7012 -5.14467,1.83663 -6.86588,0.27893 -1.47862,-1.33818 -0.82176,-3.70838 -5.47551,19.75551 l -3.56626,17.98047 0.94854,4.9965 0.94866,4.99651 3.60479,1.61771 c 4.75018,2.13177 5.91869,3.36831 5.91869,6.26311 0,2.82589 -0.9406,3.87117 -5.77483,6.41715 l -3.64155,1.91786 -0.65592,4.80259 c -0.51972,3.80541 -0.94834,5.03934 -2.06388,5.94271 -2.76388,2.23797 -5.05589,1.70686 -9.51573,-2.20497 l -3.67138,-3.22033 -4.20387,0.79 c -4.66506,0.87665 -6.27738,0.539 -8.02989,-1.68166 l -1.14664,-1.45299 -21.193775,8.81118 c -19.51946,8.11512 -21.120998,8.89156 -20.273377,9.82822 0.506206,0.55936 1.082244,1.82617 1.280016,2.81515 0.494166,2.47085 -1.390471,4.71831 -5.840374,6.96459 -3.780267,1.90828 -3.73619,1.82972 -4.571247,8.14763 -0.504636,3.81781 -2.422881,5.86618 -5.493516,5.86618 -1.845062,0 -2.788479,-0.55541 -5.763632,-3.39323 l -3.557473,-3.39322 -3.51863,0.65045 c -5.295118,0.97886 -6.831429,0.82608 -8.503219,-0.84563 -2.02315,-2.02318 -1.914789,-4.41375 0.408839,-9.01672 l 1.904738,-3.77344 -2.209509,-4.35023 c -2.495853,-4.91384 -2.540663,-5.16408 -1.341054,-7.48398 1.380943,-2.67043 3.323163,-3.2303 8.523215,-2.45689 l 4.484663,0.66701 2.661588,-2.89544 c 5.730548,-6.23431 10.683412,-5.35709 12.106025,2.14413 0.341518,1.80074 0.690785,3.34394 0.776217,3.42932 0.08585,0.0853 11.67164,-4.64953 25.747315,-10.52203 14.075675,-5.8725 26.21836,-10.92367 26.98379,-11.22483 l 1.39152,-0.54758 -2.15349,-4.16121 c -2.41618,-4.66896 -2.54537,-5.51775 -1.22809,-8.06523 1.16087,-2.24481 2.89747,-2.68703 8.07868,-2.05718 2.25525,0.27415 4.27119,0.51114 4.47984,0.52666 0.20867,0.0155 1.65599,-1.39163 3.21616,-3.12698 l 2.83675,-3.15518 3.94559,-19.67479 c 2.17003,-10.82114 3.94547,-20.13757 3.94547,-20.7032 0,-0.88602 -0.33995,-0.95201 -2.45596,-0.47659 -3.15272,0.70838 -5.18152,0.17929 -6.69627,-1.74635 -1.68802,-2.146 -1.51234,-4.46474 0.66524,-8.77839 l 1.87459,-3.71347 -2.22135,-4.37637 c -2.51563,-4.9562 -2.4703,-6.83212 0.21684,-8.95629 1.43779,-1.13663 2.10658,-1.22775 6.33129,-0.86273 l 4.72368,0.40813 v -15.6244 c 0,-8.8096 0.25504,-16.100934 0.58473,-16.716987 0.32163,-0.600935 14.84509,-9.408108 32.27449,-19.571504 25.45742,-14.844753 31.82609,-18.808478 32.3838,-20.154767 0.61258,-1.478919 0.43701,-2.135772 -1.49433,-5.589187 -2.43942,-4.362137 -2.58389,-5.2252 -1.29268,-7.722143 1.25384,-2.424775 3.43593,-3.01656 8.55159,-2.319283 l 4.26658,0.581525 3.41195,-3.415579 c 2.85056,-2.853694 3.76456,-3.415589 5.5557,-3.415589 1.22715,0 2.81235,0.525838 3.7073,1.229773 z M 207.65136,46.37622 c -1.8212,-0.126012 -2.87339,0.03036 -2.71613,0.403835 0.14102,0.335226 0.6735,1.583017 1.18316,2.772858 0.85265,1.990538 0.83443,2.369318 -0.22771,4.741796 l -1.15438,2.578449 2.92971,-0.388643 c 2.68201,-0.355778 3.11388,-0.227002 5.10688,1.522943 l 2.17715,1.911575 0.40257,-1.998179 c 0.75611,-3.754104 1.01209,-4.153195 3.467,-5.405624 l 2.45754,-1.253716 -2.45659,-1.215408 c -2.43503,-1.204761 -3.76603,-3.382892 -3.76603,-6.162933 0,-1.043664 -0.2743,-0.950307 -2.21516,0.75376 -1.95395,1.715584 -2.56579,1.920704 -5.18801,1.739287 z m -7.6822,19.20133 c -1.75994,-0.05026 -3.55245,-0.163252 -3.98337,-0.251062 -0.43093,-0.08784 -13.18492,7.074283 -28.34211,15.915712 l -27.55855,16.07533 v 10.53982 10.53982 h 1.85626 c 2.43691,0 4.65112,2.24992 5.18162,5.26509 1.2284,6.98297 0.90647,6.45852 5.38327,8.76973 2.55365,1.31834 4.49503,2.78216 5.02091,3.78583 0.82156,1.5681 1.01598,1.62351 4.65972,1.32774 2.09121,-0.16977 20.91308,-1.24752 41.82625,-2.395 20.91318,-1.1475 38.14261,-2.20496 38.28762,-2.34993 0.1449,-0.14497 -0.45721,-1.68588 -1.33812,-3.42426 -1.8926,-3.73484 -1.66195,-6.03926 0.79809,-7.97435 1.16433,-0.91581 2.27066,-1.21477 3.91502,-1.05795 1.26075,0.12022 2.29222,0.008 2.29222,-0.24874 0,-0.67203 -24.44427,-53.696606 -25.0737,-54.390072 -0.30749,-0.338691 -0.52568,0.115522 -0.52568,1.094338 0,2.447452 -2.47533,4.665504 -5.20665,4.665504 -1.86087,0 -2.76587,-0.536358 -5.66574,-3.357911 -3.34064,-3.250483 -3.529,-3.343202 -5.88906,-2.898064 -1.34095,0.252924 -3.87795,0.41871 -5.638,0.368425 z m 58.01731,62.62405 c -1.65535,1.73921 -2.01006,1.85212 -4.71007,1.4995 l -2.91998,-0.38136 1.28421,2.51731 c 1.29561,2.53949 1.27928,2.8647 -0.34403,6.88035 -0.39115,0.96757 -0.17056,1.10491 1.61378,1.00488 3.47895,-0.19502 4.0417,-0.0471 5.96109,1.56808 l 1.85449,1.56045 0.3678,-1.71282 c 0.70314,-3.2749 1.46438,-4.40702 3.76225,-5.5954 l 2.31139,-1.1953 -1.82737,-0.7034 c -2.75142,-1.05907 -3.83209,-2.30715 -4.27685,-4.93937 -0.22153,-1.31108 -0.60158,-2.38377 -0.84458,-2.38377 -0.2431,0 -1.24756,0.84639 -2.23213,1.88085 z m -121.7437,5.31733 c -1.01084,0.43134 -2.71487,0.56846 -4.17089,0.33564 l -2.46193,-0.39367 1.31624,2.58001 c 1.32472,2.59674 1.31059,2.93957 -0.28309,6.86757 -0.37084,0.91405 -0.0398,1.02883 2.64012,0.91426 2.62483,-0.11223 3.32075,0.11473 4.8534,1.58283 1.52972,1.46532 1.84485,1.56857 2.1736,0.71203 0.21138,-0.55099 0.38445,-1.63316 0.38445,-2.4048 0,-0.85253 0.91409,-2.22886 2.3299,-3.50793 l 2.32991,-2.10493 -2.15863,-1.1659 c -1.63618,-0.88375 -2.29033,-1.72697 -2.70293,-3.48424 -0.48328,-2.05845 -0.65624,-2.2254 -1.5427,-1.48924 -0.54914,0.45599 -1.76749,1.15726 -2.70745,1.55837 z m -15.18985,73.69333 c -1.46522,1.40369 -2.19119,1.63536 -4.7731,1.52301 l -3.04509,-0.13249 0.9876,1.90979 c 0.95797,1.85245 0.93797,3.9869 -0.067,7.15056 -0.44443,1.39944 -0.38475,1.42774 2.11947,1.00465 2.30761,-0.38988 2.82638,-0.23483 4.96512,1.48387 2.07758,1.66959 2.38822,1.76877 2.38822,0.76246 0,-2.50735 1.33833,-4.86803 3.38451,-5.96998 1.15554,-0.62232 2.10105,-1.31012 2.10105,-1.52845 0,-0.21833 -0.8337,-0.74231 -1.8528,-1.16442 -2.29987,-0.95263 -3.63276,-2.78774 -3.63276,-5.00162 0,-2.11228 -0.40371,-2.11814 -2.57553,-0.0374 z m -84.094964,34.76563 c -1.633784,-0.15699 -2.87768,-0.11904 -2.764294,0.0843 0.113386,0.20335 0.698952,1.45469 1.301165,2.78074 1.06853,2.35243 1.064551,2.47382 -0.161232,4.99697 l -1.256355,2.58597 3.056188,-0.36196 c 2.845853,-0.33704 3.196585,-0.22588 5.095983,1.61511 l 2.039798,1.97708 0.411875,-2.04079 c 0.768469,-3.80819 1.017018,-4.19348 3.531612,-5.47632 l 2.512605,-1.28186 -1.795017,-0.91749 c -2.943325,-1.50442 -3.926527,-2.67199 -4.319557,-5.1297 l -0.372613,-2.33059 -2.154858,1.89197 c -1.927772,1.6926 -2.4679,1.86189 -5.1253,1.60655 z M 137.03762,46.339859 c 3.05881,0.985339 4.03427,4.634211 1.82853,6.840025 -2.49282,2.492807 -6.70465,0.637715 -6.70465,-2.953073 0,-2.43181 2.70337,-4.586815 4.87612,-3.886952 z m 139.00173,4.916514 c 2.79508,2.263355 1.0121,7.409069 -2.56736,7.409069 -1.56542,0 -4.17131,-2.665294 -4.17131,-4.266549 0,-1.601245 2.60589,-4.266549 4.17131,-4.266549 0.64859,0 1.80392,0.505819 2.56736,1.124029 z M 97.41963,109.86406 c 2.501613,2.50166 0.81977,6.70457 -2.682948,6.70457 -2.457449,0 -4.021715,-1.58209 -4.021715,-4.06769 0,-3.51148 4.184302,-5.15715 6.704663,-2.63688 z m 123.59431,48.4904 c 2.3318,1.63324 1.82538,4.43046 -1.36974,7.56623 l -2.72429,2.67377 2.72429,2.9126 c 3.0519,3.26268 3.5446,5.69065 1.52564,7.51782 -1.97981,1.79168 -4.11792,1.3521 -6.95194,-1.42929 -1.409,-1.38283 -2.81528,-2.51423 -3.12518,-2.51423 -0.30979,0 -1.71618,1.1314 -3.12518,2.51423 -2.83403,2.78139 -4.97213,3.22097 -6.95183,1.42929 -2.01907,-1.82717 -1.52637,-4.25514 1.52553,-7.51782 l 2.7244,-2.9126 -2.7244,-2.67377 c -3.19512,-3.13577 -3.70154,-5.93299 -1.36975,-7.56623 2.24699,-1.57384 3.99888,-1.14058 7.05182,1.74392 l 2.85004,2.69274 2.87873,-2.69274 c 3.07974,-2.88079 4.82388,-3.31148 7.06186,-1.74392 z m -153.504473,0.65715 c 0.694764,0.88328 1.263265,1.86129 1.263265,2.17334 0,1.09596 -1.384189,3.25208 -3.52753,5.49461 l -2.164281,2.26458 2.903122,3.10372 c 2.449264,2.6184 2.840304,3.36033 2.501089,4.74476 -1.050732,4.28785 -4.613231,4.59071 -8.550228,0.72686 l -2.691006,-2.64111 -2.755081,2.53953 c -3.461363,3.19059 -5.817551,3.55814 -7.810758,1.21846 -1.699115,-1.99447 -1.269651,-3.61176 1.782034,-6.70998 l 2.848575,-2.89212 -2.848575,-3.04541 c -3.159627,-3.37792 -3.604691,-5.38911 -1.629596,-7.36419 2.033724,-2.03379 4.187744,-1.55551 7.445472,1.65324 l 2.916104,2.87225 2.916104,-2.87225 c 3.434246,-3.38261 5.463468,-3.7298 7.40129,-1.26629 z m 192.039073,42.27858 c 2.51334,2.51327 0.7758,6.85696 -2.74272,6.85696 -3.51863,0 -5.25607,-4.34369 -2.74284,-6.85696 0.67048,-0.67046 1.90474,-1.21901 2.74284,-1.21901 0.83809,0 2.07235,0.54855 2.74272,1.21901 z m -84.30423,15.85713 c 2.81989,1.12413 3.3618,4.19003 1.13418,6.4176 -1.91427,1.91432 -3.64469,1.89628 -5.59936,-0.0585 -1.20956,-1.2096 -1.46491,-1.91948 -1.15114,-3.1999 0.69392,-2.8317 3.07639,-4.17186 5.61632,-3.15932 z m -77.55456,42.79121 c 1.294255,1.8477 1.191124,3.88865 -0.27012,5.34995 -2.501723,2.50168 -6.704663,0.81984 -6.704663,-2.68288 0,-2.47649 1.585938,-4.0217 4.127663,-4.0217 1.270691,0 2.212017,0.44784 2.84712,1.35463 z"
       id="path191"
       sodipodi:nodetypes="cscssscccssscscsscsscsssscscsccccssscscccsscsscsssscscccccsccscsccccsscccsscscscscssccccsccscscsscscccccssssssscccscscsscsssscsscssssccssccsccssssssccssscsscsssscscscsssssssccsscscssccscsccsssccscssssscsscscccsssscscssscssssccccccssccscscsscssscccssccccssc" />
    <text
       xml:space="preserve"
       transform="matrix(0.26458333,0,0,0.26458333,-12.116003,2.692445)"
       id="text379"
       style="font-size:400px;font-family:Antonio;-inkscape-font-specification:Antonio;white-space:pre;shape-inside:url(#rect381);display:inline;opacity:0.95;fill:#cf5b65;fill-opacity:1" />
    <text
       xml:space="preserve"
       transform="scale(0.26458333)"
       id="text449"
       style="font-size:400px;font-family:Antonio;-inkscape-font-specification:Antonio;white-space:pre;shape-inside:url(#rect451);display:inline;opacity:0.95;fill:#cf5b65;fill-opacity:1" />
    <text
       xml:space="preserve"
       transform="matrix(0.27700877,0,0,0.27700877,119.05142,24.585476)"
       id="text455"
       style="font-style:normal;font-variant:normal;font-weight:bold;font-stretch:normal;font-size:400px;font-family:'Eras Light ITC';-inkscape-font-specification:'Eras Light ITC Bold';white-space:pre;shape-inside:url(#rect457);display:inline;opacity:0.95;fill:#cf5b65;fill-opacity:1"><tspan
         x="1139.7305"
         y="356.98429"
         id="tspan439">IRONY</tspan></text>
    <text
       xml:space="preserve"
       transform="matrix(0.27700877,0,0,0.27700877,-21.15966,16.965481)"
       id="text615"
       style="font-style:normal;font-variant:normal;font-weight:normal;font-stretch:normal;font-size:266.667px;font-family:'Agency FB';-inkscape-font-specification:'Agency FB';white-space:pre;shape-inside:url(#rect617);display:inline;opacity:0.95;fill:#cf5b65;fill-opacity:1"><tspan
         x="1195.6992"
         y="742.66622"
         id="tspan443"><tspan
           dx="0 0 0 0 0 0 0 0 0 0 0 0 0 0 0 0 0 0 0 0 0 0 -0.00010681152"
           id="tspan441"> IRaf pythON photometrY </tspan></tspan></text>
  </g>
  <metadata
     id="metadata690">
    <rdf:RDF>
      <cc:Work
         rdf:about="">
        <dc:title> IRaf pythON photometrY </dc:title>
      </cc:Work>
    </rdf:RDF>
  </metadata>
</svg>
